<svg width="90" height="89" viewBox="0 0 90 89" fill="none" xmlns="http://www.w3.org/2000/svg">
<path d="M45.8915 67.047L45 65.2926L44.1085 67.047L35.2873 84.4059L35.5436 64.9359L35.5695 62.9682L33.9649 64.1073L18.087 75.3785L27.3621 58.2578L28.2995 56.5275L26.3493 56.7904L7.05213 59.3917L23.2212 48.5425L24.8553 47.446L23.0063 46.7725L4.71066 40.108L24.0696 38.0156L26.0261 37.8041L24.7019 36.3485L11.599 21.945L29.7129 29.0888L31.5435 29.8108L31.0474 27.9064L26.1391 9.06355L38.8582 23.807L40.1437 25.297L40.5894 23.3803L45 4.41475L49.4106 23.3803L49.8563 25.297L51.1418 23.807L63.8609 9.06355L58.9526 27.9064L58.4565 29.8108L60.2871 29.0888L78.401 21.945L65.2981 36.3485L63.9739 37.8041L65.9304 38.0156L85.2893 40.108L66.9937 46.7725L65.1447 47.446L66.7788 48.5425L82.9479 59.3917L63.6507 56.7904L61.7005 56.5275L62.6379 58.2578L71.913 75.3785L56.0351 64.1073L54.4305 62.9682L54.4564 64.9359L54.7127 84.4059L45.8915 67.047Z" stroke="#6A6C8E" stroke-width="2"/>
</svg>
